<?xml version="1.0" ?><!DOCTYPE svg  PUBLIC '-//W3C//DTD SVG 1.1//EN'  'http://www.w3.org/Graphics/SVG/1.1/DTD/svg11.dtd'><svg enable-background="new 0 0 128 128" id="Слой_1" version="1.1" viewBox="0 0 128 128" xml:space="preserve" xmlns="http://www.w3.org/2000/svg" xmlns:xlink="http://www.w3.org/1999/xlink"><g><g><g><path d="M47,68.998v-9.266h4.479L44,46.78l-7.479,12.952H41v9.266c0,7.322,5.957,13.279,13.279,13.279h22.346     l-3.491-6.02l-18.855,0.02C50.266,76.277,47,73.012,47,68.998z" fill="#303031"/></g><g><path d="M87,68.268v-9.266c0-7.322-5.957-13.279-13.279-13.279H51.458l3.47,6.128l18.792-0.128     c4.014,0,7.279,3.266,7.279,7.279v9.266h-4.479L84,81.22l7.479-12.952H87z" fill="#303031"/></g></g><g><path d="M64,115.5c-28.397,0-51.5-23.103-51.5-51.5S35.603,12.5,64,12.5s51.5,23.103,51.5,51.5    S92.397,115.5,64,115.5z M64,15.5c-26.743,0-48.5,21.757-48.5,48.5s21.757,48.5,48.5,48.5s48.5-21.757,48.5-48.5    S90.743,15.5,64,15.5z" fill="#303031"/></g></g></svg>