<?xml version="1.0" encoding="utf-8"?>
<!-- Generator: Adobe Illustrator 19.2.1, SVG Export Plug-In . SVG Version: 6.00 Build 0)  -->
<svg version="1.1" id="Layer_1" xmlns="http://www.w3.org/2000/svg" xmlns:xlink="http://www.w3.org/1999/xlink" x="0px" y="0px"
	 viewBox="0 0 108 108" style="enable-background:new 0 0 108 108;" xml:space="preserve">
<style type="text/css">
	.st0{fill:#005284;}
	.st1{fill:#FFFFFF;}
</style>
<circle class="st0" cx="53.9" cy="54.7" r="49"/>
<path class="st1" d="M36.5,53.5c0,1.3,0.6,2.4,1.5,3.2l38.3,22.8c0.5,0.3,1,0.5,1.5,0.5c1.5,0,2.7-1.2,2.7-2.8h0V29.8h0
	c0-1.5-1.2-2.8-2.7-2.8c-0.6,0-1,0.2-1.5,0.4L38,50.3C37.1,51,36.5,52.2,36.5,53.5z"/>
<path class="st1" d="M29.7,78.3c0,0.9,0.7,1.7,1.7,1.7h9.4c0.9,0,1.7-0.7,1.7-1.7V28.6c0-0.9-0.7-1.7-1.7-1.7h-9.4
	c-0.9,0-1.7,0.7-1.7,1.7V78.3z"/>
</svg>
