<?xml version="1.0" encoding="utf-8"?>
<!-- Generator: Adobe Illustrator 19.2.1, SVG Export Plug-In . SVG Version: 6.00 Build 0)  -->
<svg version="1.1" id="Layer_1" xmlns="http://www.w3.org/2000/svg" xmlns:xlink="http://www.w3.org/1999/xlink" x="0px" y="0px"
	 viewBox="0 0 108 108" style="enable-background:new 0 0 108 108;" xml:space="preserve">
<style type="text/css">
	.st0{fill:#005284;}
	.st1{fill:#FFFFFF;}
</style>
<circle class="st0" cx="54.3" cy="54.7" r="49"/>
<path class="st1" d="M16.8,54.7c0,1.1,0.5,2.2,1.3,2.8l34.1,20.3c0.5,0.2,0.9,0.4,1.4,0.4c1.3,0,2.4-1.1,2.4-2.5h0V33.6h0
	c0-1.3-1.1-2.5-2.4-2.5c-0.5,0-0.9,0.1-1.3,0.4L18.1,51.9C17.3,52.5,16.8,53.5,16.8,54.7z"/>
<path class="st1" d="M47.2,54.7c0,1.1,0.5,2.2,1.3,2.8l34.1,20.3c0.5,0.2,0.9,0.4,1.4,0.4c1.3,0,2.4-1.1,2.4-2.5h0V33.6h0
	c0-1.3-1.1-2.5-2.4-2.5c-0.5,0-0.9,0.1-1.3,0.4L48.5,51.9C47.7,52.5,47.2,53.5,47.2,54.7z"/>
</svg>
