<?xml version="1.0" encoding="utf-8"?>
<!-- Generator: Adobe Illustrator 19.2.1, SVG Export Plug-In . SVG Version: 6.00 Build 0)  -->
<svg version="1.1" id="Layer_1" xmlns="http://www.w3.org/2000/svg" xmlns:xlink="http://www.w3.org/1999/xlink" x="0px" y="0px"
	 viewBox="0 0 128 128" style="enable-background:new 0 0 128 128;" xml:space="preserve">
<style type="text/css">
	.st0{opacity:0.9;}
	.st1{fill:#74CEE2;}
	.st2{fill:#FFFFFF;}
</style>
<g id="base" class="st0">
	<path id="Color_Fill_16_copy_17" class="st1" d="M63.6,0c35.1,0,63.6,28.6,63.6,64s-28.5,64-63.6,64S0,99.4,0,64S28.5,0,63.6,0z"/>
</g>
<path class="st2" d="M85.2,58.1c-1.1,0.7-2.6,0.4-3.3-0.8l-3.2-5c-0.7-1.1-0.4-2.6,0.8-3.3l13.2-8.2l0,0c-2.7-2.2-6.1-3.5-9.9-3.5
	c-8.6,0-15.6,7-15.6,15.6c0,1.2,0.1,2.3,0.4,3.5l-31.2,18c-2.5,1.5-3.4,4.7-2,7.3c1.5,2.5,4.7,3.4,7.3,1.9l31.7-18.3
	c2.6,2,5.8,3.1,9.4,3.1c8.6,0,15.6-7,15.6-15.6c0-0.9-0.1-1.8-0.3-2.7L85.2,58.1z"/>
<g>
	<path class="st2" d="M58.3,72.1c0.2-0.1,0.4-0.1,0.5-0.2l2-1.2c0.2-0.1,0.3-0.2,0.5-0.3L58.3,72.1z"/>
	<path class="st2" d="M60.4,54.9l-7.4-13c-2-3.6-6.6-4.8-10.1-2.7l-2,1.2c-3.5,2.1-4.7,6.6-2.7,10.2l7.4,13L60.4,54.9z"/>
</g>
<polygon class="st2" points="71,83.2 68.2,81.1 64.1,73.9 59.8,76.4 64,83.7 64.4,87.1 68.2,89.9 71.5,88 "/>
</svg>
